<mxfile host="app.diagrams.net" modified="2021-12-25T09:03:23.082Z" agent="5.0 (Windows NT 10.0; Win64; x64) AppleWebKit/537.36 (KHTML, like Gecko) Chrome/96.0.4664.110 Safari/537.36" etag="Be2FF-n3Rt4iBV9Ck-9n" version="16.0.0" type="github">
  <diagram name="Page-1" id="74e2e168-ea6b-b213-b513-2b3c1d86103e">
    <mxGraphModel dx="1221" dy="681" grid="1" gridSize="10" guides="1" tooltips="1" connect="1" arrows="1" fold="1" page="1" pageScale="1" pageWidth="1100" pageHeight="850" background="none" math="0" shadow="0">
      <root>
        <mxCell id="0" />
        <mxCell id="1" parent="0" />
        <mxCell id="77e6c97f196da883-1" value="&lt;font style=&quot;font-size: 12px&quot;&gt;FACTORY CONTROL (DATA VENDOR)&lt;/font&gt;" style="swimlane;html=1;childLayout=stackLayout;startSize=20;rounded=0;shadow=0;labelBackgroundColor=none;strokeWidth=1;fontFamily=Verdana;fontSize=8;align=center;" parent="1" vertex="1">
          <mxGeometry x="70" y="40" width="650" height="750" as="geometry" />
        </mxCell>
        <mxCell id="77e6c97f196da883-2" value="VENDOR" style="swimlane;html=1;startSize=20;" parent="77e6c97f196da883-1" vertex="1">
          <mxGeometry y="20" width="160" height="730" as="geometry" />
        </mxCell>
        <mxCell id="u0cV2zZjiH_a5qYLrsd3-10" value="" style="edgeStyle=orthogonalEdgeStyle;rounded=0;orthogonalLoop=1;jettySize=auto;html=1;" edge="1" parent="77e6c97f196da883-2" source="u0cV2zZjiH_a5qYLrsd3-1" target="u0cV2zZjiH_a5qYLrsd3-3">
          <mxGeometry relative="1" as="geometry" />
        </mxCell>
        <mxCell id="u0cV2zZjiH_a5qYLrsd3-1" value="START" style="strokeWidth=2;html=1;shape=mxgraph.flowchart.terminator;whiteSpace=wrap;" vertex="1" parent="77e6c97f196da883-2">
          <mxGeometry x="35" y="50" width="90" height="50" as="geometry" />
        </mxCell>
        <mxCell id="u0cV2zZjiH_a5qYLrsd3-11" value="" style="edgeStyle=orthogonalEdgeStyle;rounded=0;orthogonalLoop=1;jettySize=auto;html=1;" edge="1" parent="77e6c97f196da883-2" source="u0cV2zZjiH_a5qYLrsd3-3" target="u0cV2zZjiH_a5qYLrsd3-5">
          <mxGeometry relative="1" as="geometry" />
        </mxCell>
        <mxCell id="u0cV2zZjiH_a5qYLrsd3-3" value="Input Data&lt;br&gt;Vendor" style="shape=parallelogram;html=1;strokeWidth=2;perimeter=parallelogramPerimeter;whiteSpace=wrap;rounded=1;arcSize=12;size=0.23;" vertex="1" parent="77e6c97f196da883-2">
          <mxGeometry x="30" y="150" width="100" height="60" as="geometry" />
        </mxCell>
        <mxCell id="u0cV2zZjiH_a5qYLrsd3-25" style="edgeStyle=orthogonalEdgeStyle;rounded=0;orthogonalLoop=1;jettySize=auto;html=1;" edge="1" parent="77e6c97f196da883-2" source="u0cV2zZjiH_a5qYLrsd3-5">
          <mxGeometry relative="1" as="geometry">
            <mxPoint x="80" y="120" as="targetPoint" />
            <Array as="points">
              <mxPoint x="10" y="290" />
              <mxPoint x="10" y="120" />
            </Array>
          </mxGeometry>
        </mxCell>
        <mxCell id="u0cV2zZjiH_a5qYLrsd3-5" value="Validasi" style="strokeWidth=2;html=1;shape=mxgraph.flowchart.decision;whiteSpace=wrap;" vertex="1" parent="77e6c97f196da883-2">
          <mxGeometry x="40" y="250" width="80" height="80" as="geometry" />
        </mxCell>
        <mxCell id="u0cV2zZjiH_a5qYLrsd3-8" value="FINISH" style="strokeWidth=2;html=1;shape=mxgraph.flowchart.terminator;whiteSpace=wrap;" vertex="1" parent="77e6c97f196da883-2">
          <mxGeometry x="36" y="610" width="90" height="50" as="geometry" />
        </mxCell>
        <mxCell id="u0cV2zZjiH_a5qYLrsd3-17" value="" style="edgeStyle=orthogonalEdgeStyle;rounded=0;orthogonalLoop=1;jettySize=auto;html=1;" edge="1" parent="77e6c97f196da883-2" source="u0cV2zZjiH_a5qYLrsd3-15" target="u0cV2zZjiH_a5qYLrsd3-8">
          <mxGeometry relative="1" as="geometry" />
        </mxCell>
        <mxCell id="u0cV2zZjiH_a5qYLrsd3-15" value="Menerima No&lt;br&gt;PAS" style="verticalLabelPosition=middle;verticalAlign=middle;html=1;shape=trapezoid;perimeter=trapezoidPerimeter;whiteSpace=wrap;size=0.23;arcSize=10;flipV=1;labelPosition=center;align=center;strokeWidth=2;" vertex="1" parent="77e6c97f196da883-2">
          <mxGeometry x="31" y="460" width="100" height="60" as="geometry" />
        </mxCell>
        <mxCell id="u0cV2zZjiH_a5qYLrsd3-24" value="N" style="text;html=1;strokeColor=none;fillColor=none;align=center;verticalAlign=middle;whiteSpace=wrap;rounded=0;" vertex="1" parent="77e6c97f196da883-2">
          <mxGeometry x="4" y="262" width="60" height="30" as="geometry" />
        </mxCell>
        <mxCell id="u0cV2zZjiH_a5qYLrsd3-23" value="Y" style="text;html=1;strokeColor=none;fillColor=none;align=center;verticalAlign=middle;whiteSpace=wrap;rounded=0;" vertex="1" parent="77e6c97f196da883-2">
          <mxGeometry x="90" y="260" width="60" height="30" as="geometry" />
        </mxCell>
        <mxCell id="77e6c97f196da883-3" value="SECURITY" style="swimlane;html=1;startSize=20;" parent="77e6c97f196da883-1" vertex="1">
          <mxGeometry x="160" y="20" width="160" height="730" as="geometry" />
        </mxCell>
        <mxCell id="u0cV2zZjiH_a5qYLrsd3-13" value="" style="edgeStyle=orthogonalEdgeStyle;rounded=0;orthogonalLoop=1;jettySize=auto;html=1;" edge="1" parent="77e6c97f196da883-3" source="u0cV2zZjiH_a5qYLrsd3-4" target="u0cV2zZjiH_a5qYLrsd3-2">
          <mxGeometry relative="1" as="geometry" />
        </mxCell>
        <mxCell id="u0cV2zZjiH_a5qYLrsd3-4" value="Data diterima" style="rounded=1;whiteSpace=wrap;html=1;absoluteArcSize=1;arcSize=14;strokeWidth=2;" vertex="1" parent="77e6c97f196da883-3">
          <mxGeometry x="30" y="260" width="100" height="60" as="geometry" />
        </mxCell>
        <mxCell id="u0cV2zZjiH_a5qYLrsd3-14" value="" style="edgeStyle=orthogonalEdgeStyle;rounded=0;orthogonalLoop=1;jettySize=auto;html=1;" edge="1" parent="77e6c97f196da883-3" source="u0cV2zZjiH_a5qYLrsd3-2" target="u0cV2zZjiH_a5qYLrsd3-7">
          <mxGeometry relative="1" as="geometry" />
        </mxCell>
        <mxCell id="u0cV2zZjiH_a5qYLrsd3-2" value="Input Nomor&lt;br&gt;PAS" style="shape=parallelogram;html=1;strokeWidth=2;perimeter=parallelogramPerimeter;whiteSpace=wrap;rounded=1;arcSize=12;size=0.23;" vertex="1" parent="77e6c97f196da883-3">
          <mxGeometry x="30" y="360" width="100" height="60" as="geometry" />
        </mxCell>
        <mxCell id="u0cV2zZjiH_a5qYLrsd3-7" value="Memberikan&lt;br&gt;No PAS" style="verticalLabelPosition=middle;verticalAlign=middle;html=1;shape=trapezoid;perimeter=trapezoidPerimeter;whiteSpace=wrap;size=0.23;arcSize=10;flipV=1;labelPosition=center;align=center;strokeWidth=2;" vertex="1" parent="77e6c97f196da883-3">
          <mxGeometry x="30" y="460" width="100" height="60" as="geometry" />
        </mxCell>
        <mxCell id="77e6c97f196da883-4" value="FC" style="swimlane;html=1;startSize=20;" parent="77e6c97f196da883-1" vertex="1">
          <mxGeometry x="320" y="20" width="170" height="730" as="geometry" />
        </mxCell>
        <mxCell id="u0cV2zZjiH_a5qYLrsd3-28" value="Membuat Laporan" style="rounded=1;whiteSpace=wrap;html=1;absoluteArcSize=1;arcSize=14;strokeWidth=2;" vertex="1" parent="77e6c97f196da883-4">
          <mxGeometry x="30" y="370" width="100" height="60" as="geometry" />
        </mxCell>
        <mxCell id="u0cV2zZjiH_a5qYLrsd3-34" value="" style="edgeStyle=orthogonalEdgeStyle;rounded=0;orthogonalLoop=1;jettySize=auto;html=1;" edge="1" parent="77e6c97f196da883-4" source="u0cV2zZjiH_a5qYLrsd3-32" target="u0cV2zZjiH_a5qYLrsd3-28">
          <mxGeometry relative="1" as="geometry" />
        </mxCell>
        <mxCell id="u0cV2zZjiH_a5qYLrsd3-32" value="Monitoring Data" style="strokeWidth=2;html=1;shape=mxgraph.flowchart.display;whiteSpace=wrap;" vertex="1" parent="77e6c97f196da883-4">
          <mxGeometry x="30" y="260" width="100" height="60" as="geometry" />
        </mxCell>
        <mxCell id="77e6c97f196da883-5" value="HRD" style="swimlane;html=1;startSize=20;" parent="77e6c97f196da883-1" vertex="1">
          <mxGeometry x="490" y="20" width="160" height="730" as="geometry" />
        </mxCell>
        <mxCell id="u0cV2zZjiH_a5qYLrsd3-36" value="&lt;span&gt;Menerima Laporan&lt;br&gt;Vendor&lt;/span&gt;" style="strokeWidth=2;html=1;shape=mxgraph.flowchart.multi-document;whiteSpace=wrap;fontSize=12;" vertex="1" parent="77e6c97f196da883-5">
          <mxGeometry x="36" y="370" width="88" height="60" as="geometry" />
        </mxCell>
        <mxCell id="u0cV2zZjiH_a5qYLrsd3-12" value="" style="edgeStyle=orthogonalEdgeStyle;rounded=0;orthogonalLoop=1;jettySize=auto;html=1;" edge="1" parent="77e6c97f196da883-1" source="u0cV2zZjiH_a5qYLrsd3-5" target="u0cV2zZjiH_a5qYLrsd3-4">
          <mxGeometry relative="1" as="geometry" />
        </mxCell>
        <mxCell id="u0cV2zZjiH_a5qYLrsd3-16" value="" style="edgeStyle=orthogonalEdgeStyle;rounded=0;orthogonalLoop=1;jettySize=auto;html=1;" edge="1" parent="77e6c97f196da883-1" source="u0cV2zZjiH_a5qYLrsd3-7" target="u0cV2zZjiH_a5qYLrsd3-15">
          <mxGeometry relative="1" as="geometry" />
        </mxCell>
        <mxCell id="u0cV2zZjiH_a5qYLrsd3-33" value="" style="edgeStyle=orthogonalEdgeStyle;rounded=0;orthogonalLoop=1;jettySize=auto;html=1;" edge="1" parent="77e6c97f196da883-1" source="u0cV2zZjiH_a5qYLrsd3-4" target="u0cV2zZjiH_a5qYLrsd3-32">
          <mxGeometry relative="1" as="geometry" />
        </mxCell>
        <mxCell id="u0cV2zZjiH_a5qYLrsd3-37" value="" style="edgeStyle=orthogonalEdgeStyle;rounded=0;orthogonalLoop=1;jettySize=auto;html=1;fontSize=12;" edge="1" parent="77e6c97f196da883-1" source="u0cV2zZjiH_a5qYLrsd3-28" target="u0cV2zZjiH_a5qYLrsd3-36">
          <mxGeometry relative="1" as="geometry" />
        </mxCell>
        <mxCell id="u0cV2zZjiH_a5qYLrsd3-38" style="edgeStyle=orthogonalEdgeStyle;rounded=0;orthogonalLoop=1;jettySize=auto;html=1;entryX=1;entryY=0.5;entryDx=0;entryDy=0;entryPerimeter=0;fontSize=12;" edge="1" parent="77e6c97f196da883-1" source="u0cV2zZjiH_a5qYLrsd3-36" target="u0cV2zZjiH_a5qYLrsd3-8">
          <mxGeometry relative="1" as="geometry">
            <Array as="points">
              <mxPoint x="570" y="655" />
            </Array>
          </mxGeometry>
        </mxCell>
      </root>
    </mxGraphModel>
  </diagram>
</mxfile>
